<?xml version="1.0" standalone="no"?><!DOCTYPE svg PUBLIC "-//W3C//DTD SVG 1.1//EN" "http://www.w3.org/Graphics/SVG/1.1/DTD/svg11.dtd"><svg t="1776139107227" class="icon" viewBox="0 0 1024 1024" version="1.1" xmlns="http://www.w3.org/2000/svg" p-id="13584" xmlns:xlink="http://www.w3.org/1999/xlink" width="200" height="200"><path d="M393.00724911 865.14577178c-36.44965017-28.88721556-55.74778484-68.99597004-57.4616521-104.70865853-2.53652188-52.8770586 9.67905927-114.19062452 36.64674515-183.94498167a106.67960467 106.67960467 0 0 1 9.43483494-1.41393942c68.25043927-7.17681559 130.39522895 51.87444728 138.80602729 131.89057761 8.40651459 80.01613032-40.10018539 150.69597486-108.34633924 157.86850505a107.35658247 107.35658247 0 0 1-19.07961604 0.30849696z" fill="#FFFFFF" p-id="13585"></path><path d="M405.43277976 1002.74780737h43.45079272a42.84665678 42.84665678 0 0 0 39.96736139-27.40043598l61.09933279-158.08273825c0.86550191-2.23231035 1.53819426-4.54174619 2.01807715-6.88974224 4.72598661-23.18432499-10.24035132-45.81164506-33.4289617-50.53763166l-76.88832533-15.6775922-0.80980178-0.15424767c-23.27430335-4.27609654-45.61026637 11.12299148-49.88636122 34.39301116l-27.01053147 146.96403217-61.88771088 11.78711474A36.2482715 36.2482715 0 0 0 272.59529098 972.75514935a29.99265971 29.99265971 0 0 0 29.99265802 29.99265802h102.84483076z" fill="#5DE4C7" p-id="13586"></path><path d="M352.88992381 914.385148l25.42092247-138.30472077c5.56149573-30.25830939 34.59438979-50.27626572 64.85269742-44.71477168l1.05402778 0.20138039 76.8926107 15.6733068c30.14262194 6.14420974 49.59928961 35.55844092 43.45936357 65.70106282a56.63042496 56.63042496 0 0 1-2.62221655 8.95923583l-61.10790017 158.0870237A55.71350661 55.71350661 0 0 1 448.88357248 1015.60180438H302.587949c-23.66420785 0-42.84665678-19.18673261-42.84665501-42.84665503 0-23.57422945 16.75304194-43.8235607 39.91165953-48.23248121l53.23697029-10.13752014zM448.88357248 989.89381205a29.9840906 29.9840906 0 0 0 27.97458259-19.18244891l61.10361652-158.08273825a29.99265971 29.99265971 0 0 0-21.98461877-40.2030183l-76.8926107-15.66473766c-16.86015852-3.10638309-32.49061974 7.67383666-35.48988452 23.96413572l-28.60014392 155.61905472-70.52988064 13.43242736A23.3942745 23.3942745 0 0 0 285.44928803 972.75514935a17.1386627 17.1386627 0 0 0 17.13866097 17.1386627h146.29562348z" fill="#524F75" p-id="13587"></path><path d="M288.02008638 985.21495647l26.29927721-6.64551628a12.85399704 12.85399704 0 0 0-6.30274282-24.92818508l-26.2992772 6.64980172a12.85399704 12.85399704 0 1 0 6.30274281 24.92389964z" fill="#524F75" p-id="13588"></path><path d="M593.94521326 1002.74780737h37.89358238a42.84665678 42.84665678 0 0 0 42.67955461-39.08043417l9.014936-102.1549984a42.89807147 42.89807147 0 0 0-2.51081456-18.6597187c-8.2265579-22.18599914-32.8805242-33.50180013-55.06652156-25.27952768l-55.47785149 20.56639559a42.84237135 42.84237135 0 0 0-27.94887351 40.17302544v49.75782096l-47.66262 9.07920703A36.2482715 36.2482715 0 0 0 465.40524298 972.75514935a29.99265971 29.99265971 0 0 0 29.99265974 29.99265802h98.54731054z" fill="#5DE4C7" p-id="13589"></path><path d="M529.6752281 917.43583092v-39.12328147c0-23.29572703 14.49502422-44.13205595 36.33396442-52.22578983l55.47356608-20.56639562c28.8443682-10.69452511 60.8979524 4.01901601 71.58819381 32.8676697 2.87500994 7.74667502 3.98902326 16.02893481 3.2649144 24.25549271l-9.014936 102.15499841A55.70065379 55.70065379 0 0 1 631.83879564 1015.60180438H495.39790272c-23.66420785 0-42.84665678-19.18673261-42.84665506-42.84665503 0-23.57422945 16.75304194-43.8235607 39.91165954-48.23248121l37.2123209-7.08683722zM631.83879564 989.89381205a29.99265971 29.99265971 0 0 0 29.87697403-27.35759033l9.01065055-102.15499846a29.99265971 29.99265971 0 0 0-40.30156401-30.75961417l-55.46928063 20.56639388a29.99265971 29.99265971 0 0 0-19.5723534 28.12454648v60.39664592l-58.10863544 11.06729136A23.3942745 23.3942745 0 0 0 478.25923998 972.75514935a17.1386627 17.1386627 0 0 0 17.13866274 17.1386627h136.44089292z" fill="#524F75" p-id="13590"></path><path d="M480.83004008 985.21495647l26.29927721-6.64551628a12.85399704 12.85399704 0 0 0-6.30274281-24.92818508l-26.2992772 6.64980172a12.85399704 12.85399704 0 1 0 6.3027428 24.92389964z" fill="#524F75" p-id="13591"></path><path d="M141.29599649 614.83132036l4.76454852 29.80841931a42.85094048 42.85094048 0 0 0 35.60557194 35.55415547c12.56692372 1.99236977 21.95891137 2.79788614 28.1845304 2.42083616 9.32343299-0.56557574 22.5416254-5.56149573 39.65029527-14.9877616a12.84114248 12.84114248 0 0 0 6.63694719-11.81710752l-0.355628-8.13657952c32.77769129 5.58291939 62.02053489 9.7647522 87.72852887 12.55407088 29.81270302 3.23920706 77.60814872 16.2474517 143.39062076 39.02901768a12.85399704 12.85399704 0 0 0 17.06153892-12.14274104v-134.5342161a12.85399704 12.85399704 0 0 0-14.33649121-12.76830409l-243.50611832 28.28736152-16.31600646-5.46294823-1.23398274-21.30335723a20.10365097 20.10365097 0 0 0-20.06937448-18.93822294 21.9631968 21.9631968 0 0 0-21.73182368 18.76683705l-3.16208316 21.47045939c-3.69338253 0-7.27536306 0.4627446-10.69881054 1.33681566l-59.85677921 2.97784282a23.53566758 23.53566758 0 0 0-22.3659541 23.50138937 23.29144157 23.29144157 0 0 0 22.37452323 23.27430507l28.2359468 1.10972789z" fill="#5DE4C7" p-id="13592"></path><path d="M112.55874491 626.56701865a36.14543863 36.14543863 0 0 1-34.72293176-36.11973125 36.38966462 36.38966462 0 0 1 34.58153695-36.34253357l58.65707297-2.91785728c0.42418269-0.09426207 0.84407996-0.18852584 1.26826089-0.27421874l1.70958189-11.62858169a34.82147751 34.82147751 0 0 1 34.4487113-29.74843376 32.957648 32.957648 0 0 1 32.90194785 31.04668749l0.73267795 12.61834015 5.35154624 1.7909894 240.66109952-27.95315723a25.70799404 25.70799404 0 0 1 28.67298237 25.53660648v134.53421611a25.70799404 25.70799404 0 0 1-34.12307607 24.2897692c-64.92982298-22.49021067-111.96688163-35.29279125-140.571311-38.39917265-22.1003062-2.39512877-46.74141792-5.80572171-73.92762071-10.23606588a25.6951395 25.6951395 0 0 1-12.49408532 16.11891145c-18.63829509 10.26605869-33.4075381 15.84897811-45.07896711 16.5602324-7.35677058 0.44560463-17.56284369-0.4370355-30.97384734-2.56222927a55.70065379 55.70065379 0 0 1-46.28724247-46.21868949l-3.10209767-19.40524955-17.70423848-0.68983232z m130.38665982 21.66327067a12.85399704 12.85399704 0 0 1 14.99632899-13.23104868c32.53346533 5.54435748 61.52351377 9.6919138 86.95728907 12.44695426 31.02097837 3.36774731 79.57909483 16.58594146 146.2142142 39.66743528v-134.5342161l-243.50611665 28.28307785a12.75116415 12.75116415 0 0 1-5.56149571-0.58271575l-16.3160064-5.45437913a12.85828074 12.85828074 0 0 1-8.75357181-11.4486267l-1.23826984-21.30335721a7.24965397 7.24965397 0 0 0-7.23679943-6.82975669c-4.52032254 0-8.35509818 3.31204714-9.01493599 7.78523693l-3.15779954 21.47902853a12.84971161 12.84971161 0 0 1-12.71688764 10.9773147c-2.57080008 0-5.09018203 0.31706612-7.52387272 0.93834028-0.83122541 0.21423321-1.6795891 0.34277347-2.53652189 0.38562081l-59.86106287 2.97355739a10.67738681 10.67738681 0 0 0-10.15037304 10.66453231 10.43316085 10.43316085 0 0 0 10.02611645 10.42887717l28.23594679 1.11401334a12.84971161 12.84971161 0 0 1 12.18987379 10.81021078l4.76454853 29.80841934a30.00122886 30.00122886 0 0 0 24.92389963 24.88962143c11.71856006 1.85954407 20.30502961 2.59222201 25.39521339 2.2837268 6.98400429-0.41989726 18.64686424-4.8288178 34.22162523-13.41100199l-0.35134254-8.14086495z" fill="#524F75" p-id="13593"></path><path d="M141.59163894 628.25089316h34.28589452a12.85399704 12.85399704 0 1 0 0-25.70799403h-34.28589452a12.85399704 12.85399704 0 0 0 0 25.70799403z" fill="#524F75" p-id="13594"></path><path d="M672.58596604 184.03389842c9.35342575 18.3555072-12.91826632 53.42549612-66.80222159 105.20996505l-55.73921574-109.40465237c72.34657909-15.55762109 113.19229698-14.16081987 122.54143733 4.19468732z" fill="#FFC48B" p-id="13595"></path><path d="M661.82288623 191.11645191c-4.51603709-9.67905927-35.73839586-12.64404757-91.87608516-4.00187775l37.33229206 80.0546922c41.76263622-39.31180726 59.15409402-66.159522 54.5437931-76.05281445z m23.29572703-10.86162897c12.35269051 26.48780306-13.19677047 63.78153317-73.49915435 117.81973608a12.85399704 12.85399704 0 0 1-20.22790751-4.13898715l-51.89158552-111.28133471a12.85399704 12.85399704 0 0 1 9.38770392-18.08557387c79.1334902-14.15225078 123.75828179-11.06300591 136.23094346 15.68615965z" fill="#524F75" p-id="13596"></path><path d="M702.37724539 289.00392291c8.1922814 16.79588923-12.56264001 48.25818858-62.26047541 94.38261427l-48.82804973-100.12835214c65.8638796-12.96539905 102.89624549-11.05015309 111.08852514 5.74573787z" fill="#FFC48B" p-id="13597"></path><path d="M637.99585995 359.71804394c19.52522066-14.90635237 33.98596839-27.9060279 43.31368506-38.8619172 9.56765895-11.24296261 12.57549287-18.83539005 11.39721023-22.2588375-1.13543699-3.28633807-7.89235354-7.10397547-22.02746604-9.58908265-13.98943401-2.45511265-33.2789978-3.1492287-57.72730001-2.01807711l25.04387076 72.72791446z m79.01780446-69.49299284c8.89496658 25.82796518-17.91418624 57.3116882-77.92092938 100.69392794a12.85399704 12.85399704 0 0 1-19.68375371-6.23418813l-36.26969518-105.32993622a12.85399704 12.85399704 0 0 1 11.22153894-17.00583699c73.34062129-5.30441521 113.66789438 1.77385117 122.65283933 27.8760334z" fill="#524F75" p-id="13598"></path><path d="M726.28568092 401.52781122c6.08422592 17.6742457-18.35122353 46.36865169-73.29777566 86.09178709l-36.26969517-105.3299362c66.95646923-4.84595605 103.48324495 1.56818707 109.56747083 19.23814911z" fill="#FFC48B" p-id="13599"></path><path d="M701.28894116 430.92490237c11.04158396-9.79903041 15.07345452-16.89872041 14.38362222-20.45499357-0.66412325-3.41059466-6.82975666-8.13229582-20.47641727-12.55835635-13.50526574-4.37892776-32.51204335-7.75096046-56.88322006-10.0346855l14.67926462 75.50866234c21.40190471-12.04419526 37.53367072-22.90582252 48.29675049-32.46062692z m39.61601881-25.36093691c5.21443857 26.81343825-25.71656317 54.26529066-91.17339999 88.87253502a12.85828074 12.85828074 0 0 1-18.62972599-8.91210479l-21.25622621-109.35323596a12.85399704 12.85399704 0 0 1 13.47955666-15.27483317c73.36204494 4.94878891 112.31394049 17.57141452 117.57979553 44.6676389z" fill="#524F75" p-id="13600"></path><path d="M740.11229646 485.93144011c9.50338794 15.2062785-5.26156963 46.1287094-44.28201986 92.75872534l-56.63899408-90.63353162c57.77871647-16.62450336 91.41762601-17.33147223 100.92101394-2.12519372z" fill="#FFC48B" p-id="13601"></path><path d="M724.71749211 514.27450182c5.26585331-12.0913263 5.83999994-19.4609514 3.86048474-22.3959469-1.89382232-2.81074065-8.59075505-4.80311041-21.33763546-4.09185616-12.29270494 0.68983062-28.48874193 3.92046852-48.4509981 9.71762289l40.01449243 59.32119445c12.28413582-16.86015852 20.92630728-31.08953308 25.91365639-42.55101428z m25.17241107-36.76671458c14.67926462 21.75324727-0.54415214 56.72897245-41.53126476 109.34038142a12.85828074 12.85828074 0 0 1-20.79776534-0.71125432l-59.76680254-88.60688533a12.85399704 12.85399704 0 0 1 6.67979447-19.40953495c62.89889132-20.50212461 100.5825259-22.61018009 115.41603817-0.61270682z" fill="#524F75" p-id="13602"></path><path d="M790.08863607 540.24386183c14.07941062 8.45792936 14.88921241 39.83453574 2.42940527 94.12553374l-83.91089151-50.42194594c40.2458639-37.59794169 67.40207556-52.16580428 81.48148624-43.7035878z" fill="#FFC48B" p-id="13603"></path><path d="M788.56329455 571.05917612c0.09854746-11.74855285-1.93238419-17.83277876-4.26752568-19.35383482-2.21517209-1.43536309-8.20513422-0.76267073-18.39407081 4.25467294-9.77332302 4.81167954-21.82180201 12.97396815-36.01261466 24.46544044l52.42716852 34.045954c4.07043247-17.84991698 6.14420974-32.36207946 6.24704263-43.41223256z m9.73047571-40.90998714c20.74635059 13.47098922 20.42928621 48.73807139 4.56745355 108.23922262a12.85399704 12.85399704 0 0 1-19.42238946 7.46817257l-82.10276214-53.31409409a12.84971161 12.84971161 0 0 1-1.43964686-20.47213353c46.08157841-40.1344636 77.41105376-55.55068986 98.39734491-41.92116757z" fill="#524F75" p-id="13604"></path><path d="M873.52821559 540.86513773c15.20199309 1.86811492 27.79034044 28.28736329 37.77361123 79.26631417l-90.61639336-11.12727692c20.02652716-47.29413921 37.63650359-70.00715215 52.84278213-68.13903725z" fill="#FFC48B" p-id="13605"></path><path d="M882.40604217 567.19012231c-4.93593439-9.48624971-9.06635245-13.40671827-11.29437908-13.60381322-0.6341305-0.05570016-1.65816543 0.26136422-3.34632364 1.41822483-2.64363851 1.81241307-5.7585907 5.06447465-9.16061448 9.77760675-5.7585907 7.990901-11.91565499 19.56378258-18.38121629 34.65009165l55.65352276 4.87166513c-4.34893496-15.8532635-8.86497379-28.25308505-13.47098927-37.11377514z m-9.05349786-39.2175435c23.53995298 2.06092447 38.83620983 31.47086844 51.92586198 87.79708356a12.85828074 12.85828074 0 0 1-13.64666054 15.71615244l-90.95488141-7.95662281a12.85399704 12.85399704 0 0 1-10.88305094-17.40002698c20.52354826-53.60116741 39.73170454-80.23893268 63.55873091-78.15658621z" fill="#524F75" p-id="13606"></path><path d="M284.88371053 146.92869409c51.11177654-20.95201468 109.74314042-26.05076751 177.05523937 0s144.81741305 137.30639488 171.34806342 237.21194301c8.12372668 30.59251201 12.06990264 59.33833447 11.83853113 86.24175106-0.7198234 82.35127356 61.57921388 151.60860956 143.54486674 159.57380147 29.70130274 2.88786447 107.62651581-23.78417899 162.02034669-72.23089338 19.16959439-22.14315179 31.20093512-32.02359139 36.10687673-29.63703173 7.35248687 3.57769509 2.23231035 26.99767868 1.36680842 29.63703173-28.47588739 87.15866769-54.35955271 117.9268527-87.22293696 147.09685613s-70.52988061 55.61495914-112.27109488 73.3748995c-16.75304194 47.2341536-84.23224131 89.9051391-137.82912331 106.95382343s-99.10860089 24.04982861-177.36373464 14.33220574-134.82128942-74.04759187-137.93623993-139.04168413c-3.31633088-69.15021937 17.80706969-151.37723641 63.37448871-246.68533812a12.84542791 12.84542791 0 0 0-10.44601367-18.3469398c-90.91203581-8.17514145-146.4070255-19.69660826-166.4806837-34.56868075C176.76445903 427.3257836 161.1939834 380.12162105 161.1939834 321.14748373c0-84.57501475 72.57795055-153.27105869 123.68972713-174.21878964z" fill="#5DE4C7" p-id="13607"></path><path d="M284.88371053 146.92869409C233.77193567 167.87642502 161.1939834 236.57246894 161.1939834 321.14748373c0 58.97413732 15.57047563 106.17829988 60.79512125 139.68866911 20.07365823 14.8720742 75.5686479 26.39782469 166.4806837 34.56868244a12.85399704 12.85399704 0 0 1 10.44601367 18.34693809c-45.56741907 95.30810178-66.69082131 177.53940591-63.37448871 246.68533988 3.1192359 64.99409227 59.68539162 129.32406297 137.93623993 139.04168409s123.76685093 2.71647858 177.36373464-14.33220749 121.0760814-59.71966982 137.82912331-106.95382339c41.74121255-17.75993862 79.40342351-44.20489607 112.27109488-73.37489779s58.75133501-59.93818671 87.22293696-147.09685612c0.8612182-2.63935479 5.98139302-26.05933663-1.36680842-29.63703347-4.90594162-2.38655796-16.93728405 7.49387996-36.10687673 29.63703347-54.39383093 48.45099985-132.32332942 75.11875786-162.02034669 72.23089337-81.96565279-7.96519366-144.26469181-77.22252791-143.54486674-159.57380321 0.23565685-26.90341489-3.71480449-55.64923732-11.83853113-86.24174933-26.53065036-99.90126442-104.03596616-211.15689178-171.34806342-237.20765929s-125.94346109-20.95201468-177.05523937 0z m672.90245372 366.90877219c4.64886279-3.81763737 9.02350513-6.72692553 13.59524411-8.74928635 8.36795266-3.70195165 17.40431233-4.62315373 26.66775974-0.1156857 10.43744629 5.0773292 15.42908081 13.85232461 17.40859606 23.90843383 1.01118041 5.12446023 1.15685894 10.44172997 0.75410163 16.19175152-0.52701385 7.40390157-2.15947195 16.21317523-3.60768961 20.63494857-26.51351039 81.16870558-50.97038178 119.62786377-94.5968475 158.34410416-34.98857969 31.04668746-71.49393001 55.9534489-109.65316206 73.53771625-23.27430335 47.86828408-86.07036347 91.81609961-149.71907265 112.05686-63.06170805 20.0608037-112.37392611 24.77822115-188.32390768 15.34338787-87.68568158-10.89162003-156.59167498-82.93398759-160.44787422-163.32288415-3.34632365-69.76292619 16.18746613-150.46460344 58.09578084-242.38353598-85.23913801-8.50506209-137.4949207-20.1764911-161.27481426-37.79503492-49.78781546-36.8866857-71.1982893-89.28386315-71.19828928-160.34075765 0-45.53742627 17.83277876-89.30957049 48.39101427-127.12602911 25.85795626-32.00216776 59.82250101-57.99723341 91.25480921-70.88122319 62.0333894-25.42948986 127.22886201-26.8391456 196.08772268-0.18852586 74.80169347 28.95148652 157.88992868 145.30158133 186.91853729 254.59054798 8.69358621 32.73484571 12.94825908 63.75582408 12.695464 93.06722231-0.60413767 69.02596277 51.62165217 127.07889805 120.32626521 133.76297628 26.86485299 2.60936199 97.38188077-26.33355539 141.24400339-64.78414448 9.94470888-11.41863392 18.29123789-19.93226511 25.38235883-25.75084138z" fill="#524F75" p-id="13608"></path><path d="M208.32530584 351.47863151a12.85399704 12.85399704 0 0 1 12.85399701 12.85399702v25.70799408a12.85399704 12.85399704 0 1 1-25.70799404 0v-25.70799408a12.85399704 12.85399704 0 0 1 12.85399703-12.85399702zM268.31062533 351.47863151a12.85399704 12.85399704 0 0 1 12.85399699 12.85399702v25.70799408a12.85399704 12.85399704 0 1 1-25.70799404 0v-25.70799408a12.85399704 12.85399704 0 0 1 12.85399705-12.85399702z" fill="#44756A" p-id="13609"></path><path d="M367.65488136 519.3175545c18.71970432 1.95380787 34.03738311 1.95380787 46.13299484-0.11140198 36.98951859-6.32845189 48.56668554-10.65596321 70.96263245-29.70130274a12.85399704 12.85399704 0 1 0-16.65449448-19.58520623c-18.21839783 15.49335011-25.793687 18.32123073-58.64850382 23.94271198-9.45197324 1.61531809-22.55019452 1.61531809-39.12756681-0.1156857a12.85399704 12.85399704 0 1 0-2.66506218 25.57088467z" fill="#524F75" p-id="13610"></path><path d="M393.00724911 865.14577178c-36.44965017-28.88721556-55.75206851-68.99597004-57.4659358-104.70865853-2.53223819-52.8770586 9.67905927-114.19062452 36.64674513-183.94069624a106.67960467 106.67960467 0 0 1 9.43483328-1.41393944c68.25043927-7.17681559 130.39522895 51.87444728 138.80602895 131.89057762 8.40651459 80.01613032-40.10018539 150.69597486-108.34634094 157.86850503-6.42699766 0.67269238-12.7982969 0.76267073-19.07533062 0.30421156z" fill="#FFFFFF" p-id="13611"></path><path d="M367.00361268 126.79076663L297.24068645 121.3492403C331.12382368 45.78487783 385.14488664 13.98837415 459.29102597 25.95972932 533.44144903 37.92680075 568.11724804 89.30422694 563.31413764 180.09200619H467.92034289c-0.98547306-58.01865704-13.92516298-90.1236577-38.82764072-96.32356762-24.90247599-6.19562622-45.59741185 8.14086495-62.08908949 43.02232806z" fill="#FFF185" p-id="13612"></path><path d="M432.19479986 71.29577692c30.27116219 7.53244185 45.36604041 40.34869679 48.15964278 95.94223223H550.88432326C551.86979636 90.40538574 521.10589676 48.9555302 457.24295607 38.64662414 394.67826738 28.55195305 348.69952189 51.73627805 317.1429588 110.0077302l42.27251186 3.29919262c18.4583401-34.23019441 43.13801375-49.38934014 72.7793292-42.0111459zM278.04110103 132.74216685l7.46817082-16.65449616C321.70184322 35.39027887 381.24155636 0.34171359 461.33909592 13.26855074 542.48637781 26.36677202 581.27545662 83.84556238 576.146711 180.77326767L575.49972768 192.94600323H455.2805791l-0.21423319-12.63547842c-0.8954947-52.76994198-11.7742619-79.75905153-29.08002509-84.06942457-17.94417905-4.46462238-33.21044312 6.10993326-47.3584102 36.04260746l-3.78764455 8.01232467L278.04110103 132.74216685z" fill="#524F75" p-id="13613"></path><path d="M529.6752281 201.51533459m-81.40864612 0a81.40864782 81.40864782 0 1 0 162.81729397 0 81.40864782 81.40864782 0 1 0-162.81729397 0Z" fill="#FFF185" p-id="13614"></path><path d="M529.6752281 295.77797772c-52.0586877 0-94.26264315-42.20395716-94.26264317-94.26264313s42.20395716-94.26264315 94.26264317-94.26264316 94.26264315 42.20395716 94.26264488 94.26264316-42.20395716 94.26264315-94.26264488 94.26264313z m0-25.70799231c37.85930593 0 68.55465081-30.69534487 68.55465082-68.55465082s-30.69534487-68.55465081-68.55465082-68.55465085-68.55465081 30.69534487-68.55464908 68.55465085 30.69534487 68.55465081 68.55464908 68.55465082z" fill="#524F75" p-id="13615"></path><path d="M542.52922513 188.66133756m-42.84665676 0a42.84665678 42.84665678 0 1 0 85.69331351 0 42.84665678 42.84665678 0 1 0-85.69331351 0Z" fill="#FFFBDC" p-id="13616"></path><path d="M208.32530584 197.23066891m-64.26998515 0a64.26998516 64.26998516 0 1 0 128.53997029 0 64.26998516 64.26998516 0 1 0-128.53997029 0Z" fill="#FFFFFF" p-id="13617"></path><path d="M208.32530584 274.35465106C165.7314442 274.35465106 131.20132369 239.82453056 131.20132369 197.23066891S165.7314442 120.10668674 208.32530584 120.10668674s77.12398215 34.53012052 77.12398219 77.12398217-34.53012052 77.12398215-77.12398219 77.12398215z m0-25.70799406c28.39447988 0 51.41598811-23.02150824 51.41598815-51.41598809S236.71978572 145.8146808 208.32530584 145.8146808 156.90931773 168.83618903 156.90931773 197.23066891s23.02150824 51.41598811 51.41598811 51.41598809z" fill="#524F75" p-id="13618"></path><path d="M174.44645408 211.97420279A19.28099467 19.28099467 0 1 0 169.76331479 198.98309637l14.29364555 2.07806444-9.61050626 10.91304198z" fill="#232323" p-id="13619"></path><path d="M527.86709873 489.45343503c13.14535404-28.16310668 21.43618292-52.05440229 24.87248494-71.67817212 1.97951523-33.24900502 1.97951523-55.66209187 0-67.23925712-0.52701385-3.07210489-4.28466567-8.25226526-11.27295541-15.54048283-23.36856709-6.3670138-38.64768404-29.46992955-34.71436093-53.92251726C511.61964704 250.80184352 538.68159498 229.17713649 569.28267781 231.10523526l36.90382393 2.32657414c26.53065036 1.67530366 47.57692709 22.09602076 50.70901924 47.77830568 8.18371058 4.751694 16.44883206 12.76830412 16.20888982 22.97009355-0.52272845 22.30596853-14.70068831 31.3423299-31.07668029 33.65176233l-23.06435555 3.2477779 12.6226256 60.5123316c3.3291854 20.33502243 10.44172997 40.2929949 10.44172995 65.40113669l-10.44172995 78.32368844" fill="#5DE4C7" p-id="13620"></path><path d="M620.18879031 410.72270391c0.47988285 2.4251216 1.01118041 4.94450351 1.67530364 7.93948459 0.25279514 1.15685894 0.51415934 2.3308578 0.86978735 3.91189939l0.86978732 3.88619208c3.91618486 17.54999084 5.49722646 27.67465474 5.57006488 39.69742807l-10.32175884 77.46247021a12.85399704 12.85399704 0 1 0 25.4809063 3.39345465l10.43744458-78.3236884c0.07712381-0.56129035 0.11568572-1.13115157 0.11568744-1.69672735 0-14.73925019-1.79956023-26.47066478-6.19134254-46.13299481l-0.87407273-3.90761574-0.84836367-3.81763566a317.06097287 317.06097287 0 0 1-1.55961793-7.40818704 213.45775678 213.45775678 0 0 1-1.13543534-6.21276611l-9.91471781-47.61977271 9.46482781-1.33253193c24.89819231-3.50485672 41.50984116-19.17816352 42.13540074-46.0772947 0.29564243-12.67404035-6.65837078-23.24002687-17.34004136-30.97384734A67.42349925 67.42349925 0 0 0 607.00058892 220.60780513l-36.90382567-2.32657408C532.88444236 215.92894955 499.97821079 242.22394306 494.06108706 279.03350492c-4.73883946 29.49992234 12.62262561 57.77871647 40.36155132 67.24354256 2.01807713 2.20660296 3.59054962 4.09185615 4.70027752 5.62148129 0.48845197 0.67269238 0.84836364 1.22541364 1.07973511 1.62817266 1.61531809 10.52313923 1.58104159 31.69367246-0.24850964 62.74464365-3.29490721 18.24410687-11.18726246 40.87999434-23.73276255 67.74913277a12.85399704 12.85399704 0 0 0 23.29144157 10.87876723c13.58667496-29.10144875 22.23313014-54.01677927 25.88795077-74.89595557 0.08569293-0.47988285 0.14139482-0.9640494 0.17138589-1.45250134 2.0395008-34.20877069 2.0395008-57.3159719-0.16281678-70.16996893-1.12258245-6.56410701-5.83999994-13.07251565-14.66212638-22.27169204a12.86685158 12.86685158 0 0 0-5.89570008-3.50485672c-17.22007194-4.69170841-28.26165417-21.70611627-25.40378248-39.4831948a46.67714693 46.67714693 0 0 1 49.02514471-39.17898163l36.90382392 2.32657238a41.70693609 41.70693609 0 0 1 38.76337147 36.50535204 12.84114248 12.84114248 0 0 0 6.3027428 9.55908812c6.34130472 3.68052796 9.89329245 8.17942687 9.81616864 11.55145958-0.30849526 13.27817801-6.761202 19.35811849-20.02224173 21.22623344l-23.06007188 3.24777616a12.85399704 12.85399704 0 0 0-10.79307256 15.35195701l12.56692544 60.24668372c0.3599117 2.16375562 0.77123986 4.39606769 1.23826817 6.76548741z" fill="#524F75" p-id="13621"></path><path d="M626.08020493 584.99290828m-14.99632898 0a14.996329 14.996329 0 1 0 29.99265802 0 14.996329 14.996329 0 1 0-29.99265802 0Z" fill="#524F75" p-id="13622"></path><path d="M554.62912056 239.22467658l-4.01473062 27.04480969a12.85399704 12.85399704 0 1 0 25.42520444 3.77479006l4.01901778-27.04480969a12.85399704 12.85399704 0 0 0-25.4294916-3.77479006zM597.47577732 243.50934224l-4.01473235 27.0448097a12.85399704 12.85399704 0 1 0 25.42520618 3.77479003l4.01901602-27.0448097a12.85399704 12.85399704 0 0 0-25.42948985-3.77479003z" fill="#524F75" p-id="13623"></path><path d="M341.14994009 175.80734053m-81.4086461 0a81.40864782 81.40864782 0 1 0 162.81729393 0 81.40864782 81.40864782 0 1 0-162.81729393 0Z" fill="#FFFFFF" p-id="13624"></path><path d="M341.14994009 270.06998541C289.09125239 270.06998541 246.88729695 227.86602822 246.88729695 175.80734053S289.09125239 81.5446974 341.14994009 81.5446974s94.26264315 42.20395716 94.26264484 94.26264313-42.20395716 94.26264315-94.26264484 94.26264488z m0-25.70799412c37.85930593 0 68.55465081-30.69534487 68.55465081-68.55465076S379.009246 107.25269143 341.14994009 107.25269143 272.59529098 137.94803461 272.59529098 175.80734053s30.69534487 68.55465081 68.55464911 68.55465076z" fill="#524F75" p-id="13625"></path><path d="M300.26566033 196.89218086A25.70799404 25.70799404 0 1 0 294.01861766 179.56927772l19.05819408 2.77217875-12.81115141 14.55072439z" fill="#232323" p-id="13626"></path></svg>